<svg width="55" height="55" viewBox="0 0 55 55" fill="none" xmlns="http://www.w3.org/2000/svg">
<path d="M35.5207 32.0833H33.7103L33.0686 31.4646C34.5008 29.8008 35.5475 27.8409 36.1339 25.7254C36.7202 23.6098 36.8317 21.3908 36.4603 19.2271C35.3832 12.8563 30.0665 7.76875 23.6499 6.98959C21.394 6.7042 19.1027 6.93865 16.9514 7.675C14.8001 8.41135 12.8457 9.63009 11.2378 11.238C9.62997 12.8458 8.41123 14.8002 7.67488 16.9515C6.93852 19.1029 6.70407 21.3941 6.98946 23.65C7.76863 30.0667 12.8561 35.3833 19.227 36.4604C21.3906 36.8318 23.6097 36.7203 25.7252 36.134C27.8408 35.5476 29.8006 34.5009 31.4645 33.0688L32.0832 33.7104V35.5208L41.8228 45.2604C42.7624 46.2 44.2978 46.2 45.2374 45.2604C46.177 44.3208 46.177 42.7854 45.2374 41.8458L35.5207 32.0833ZM21.7707 32.0833C16.0645 32.0833 11.4582 27.4771 11.4582 21.7708C11.4582 16.0646 16.0645 11.4583 21.7707 11.4583C27.477 11.4583 32.0832 16.0646 32.0832 21.7708C32.0832 27.4771 27.477 32.0833 21.7707 32.0833Z" fill="#758BFD"/>
</svg>
